<?xml version="1.0" encoding="UTF-8"?>
<svg id="_레이어_1" data-name="레이어 1" xmlns="http://www.w3.org/2000/svg" viewBox="0 0 394 389">
  <defs>
    <style>
      .cls-1 {
        fill: #fe8d32;
      }

      .cls-1, .cls-2 {
        stroke-width: 0px;
      }

      .cls-3 {
        stroke-width: 20px;
      }

      .cls-3, .cls-4 {
        fill: none;
        stroke: #fff;
        stroke-linecap: round;
        stroke-miterlimit: 10;
      }

      .cls-4 {
        stroke-width: 10px;
      }

      .cls-2 {
        fill: #fff;
      }
    </style>
  </defs>
  <circle class="cls-1" cx="161" cy="228" r="161"/>
  <path class="cls-1" d="M289.53,152l60.15-60.15,9.26,9.26c7.52,7.52,19.71,7.52,27.23,0h0c7.52-7.52,7.52-19.71,0-27.23L318.64,6.36c-7.52-7.52-19.71-7.52-27.23,0h0c-7.52,7.52-7.52,19.71,0,27.23l9.26,9.26-60.15,60.15c-57.3-35.21-133.29-28.01-182.92,21.63-58.07,58.07-58.07,152.23,0,210.31,58.07,58.07,152.23,58.07,210.31,0,49.64-49.64,56.84-125.63,21.63-182.92Z"/>
  <g>
    <path class="cls-3" d="M293.69,260.29c-15.45,59.1-69.2,102.71-133.14,102.71s-115.69-42-132.24-99.42"/>
    <path class="cls-2" d="M221.43,257c-11.84,13.6-34.46,22.8-60.43,22.8s-48.6-9.2-60.43-22.8h-51.48c13.77,48.85,58.66,84.66,111.91,84.66s98.14-35.81,111.91-84.66h-51.48Z"/>
  </g>
  <path class="cls-4" d="M128,101s-46.44,24.73-62.72,65.86"/>
  <path class="cls-4" d="M169,105s-46.44,24.73-62.72,65.86"/>
  <path class="cls-4" d="M75.5,119.56s53.5-16.56,97.5,10.44"/>
  <path class="cls-4" d="M47.5,147.56s53.5-16.56,97.5,10.44"/>
</svg>