<?xml version="1.0" encoding="UTF-8"?>
<svg id="_레이어_1" data-name="레이어 1" xmlns="http://www.w3.org/2000/svg" viewBox="0 0 200 200">
  <defs>
    <style>
      .cls-1 {
        fill: #fe8d32;
      }

      .cls-1, .cls-2 {
        stroke-width: 0px;
      }

      .cls-2 {
        fill: #fff;
      }
    </style>
  </defs>
  <path class="cls-1" d="M144.59,10.55c-18.78,0-35.26,9.83-44.59,24.62-9.33-14.79-25.81-24.62-44.59-24.62C26.31,10.55,2.72,34.14,2.72,63.24c0,53.91,62,114.96,97.28,126.21,42.06-12.45,97.28-72.3,97.28-126.21,0-29.1-23.59-52.69-52.69-52.69Z"/>
  <polygon class="cls-2" points="142.54 84.91 115.43 84.91 115.43 57.79 84.1 57.79 84.1 84.91 56.98 84.91 56.98 116.24 84.1 116.24 84.1 143.35 115.43 143.35 115.43 116.24 142.54 116.24 142.54 84.91"/>
</svg>